<svg enable-background="new 0 0 443.2 443.2" viewBox="0 0 443.2 443.2" xmlns="http://www.w3.org/2000/svg"><path d="m219.2 9.2c-119.6 0-216.6 97-216.6 216.7 0 119.6 97 216.6 216.6 216.6s216.6-97 216.6-216.6c.1-119.7-96.9-216.7-216.6-216.7" fill="#3e3a38"/><path d="m221.6 5c-119.6 0-216.6 97-216.6 216.6s97 216.6 216.6 216.6 216.6-97 216.6-216.6-96.9-216.6-216.6-216.6" style="fill:none;stroke:#1d1d1b;stroke-width:9.9923;stroke-linecap:round;stroke-linejoin:round;stroke-miterlimit:10"/><path d="m380.8 330.8h-179c2-17.7 8.3-34.3 18.7-49.9s29.9-34 58.5-55.2c17.5-13 28.7-22.8 33.5-29.6 4.9-6.7 7.3-13.1 7.3-19.2 0-6.5-2.4-12.1-7.2-16.8-4.8-4.6-10.9-7-18.2-7-7.6 0-13.8 2.4-18.7 7.2-4.8 4.8-8.1 13.2-9.7 25.3l-59.8-4.8c2.4-16.8 6.6-29.9 12.9-39.3 6.2-9.4 15.1-16.7 26.4-21.7 11.4-5 27.1-7.5 47.2-7.5 21 0 37.3 2.4 49 7.2s20.8 12.1 27.5 22.1c6.7 9.9 10 21 10 33.3 0 13.1-3.8 25.6-11.5 37.5s-21.6 25-41.8 39.3c-12 8.3-20.1 14.1-24.1 17.4-4.1 3.3-8.8 7.7-14.3 13h93.2v48.7zm-219.4-218.4v218.4h-60.4v-143.1c-9.8 7.4-19.2 13.4-28.4 18-9.1 4.6-20.6 9-34.4 13.2v-48.9c20.3-6.5 36.1-14.4 47.3-23.6s20-20.5 26.4-34z" fill="#fbbb00"/></svg>