<svg enable-background="new 0 0 443.2 443.2" viewBox="0 0 443.2 443.2" xmlns="http://www.w3.org/2000/svg"><path d="m223.1 7.8c-119.6 0-216.6 97-216.6 216.6s97 216.6 216.6 216.6 216.6-97 216.6-216.6-97-216.6-216.6-216.6" fill="#3e3a38"/><path d="m221.6 5c-119.6 0-216.6 97-216.6 216.6s97 216.6 216.6 216.6 216.6-97 216.6-216.6-96.9-216.6-216.6-216.6" style="fill:none;stroke:#1d1d1b;stroke-width:9.9923;stroke-linecap:round;stroke-linejoin:round;stroke-miterlimit:10"/><path d="m277.3 263.8c0 9.5 2.9 17.2 8.6 23.2 5.8 6 12.4 9 19.8 9 7.1 0 13.5-3.1 19.2-9.2s8.5-13.8 8.5-23.2c0-9.5-2.9-17.2-8.6-23.3s-12.3-9.1-19.9-9.1c-7.4 0-13.9 2.9-19.4 8.8s-8.2 13.8-8.2 23.8zm3.2-92.4c0 7.4 2.3 13.4 7 17.9 4.6 4.5 10.8 6.8 18.5 6.8 6.8 0 12.5-2.2 16.8-6.7 4.4-4.5 6.6-10.3 6.6-17.4 0-7.4-2.3-13.5-6.9-18.1s-10.5-7-17.6-7c-7.2 0-13.1 2.3-17.6 6.8s-6.8 10.4-6.8 17.7zm-26.8 42.1c-9.4-5-16.2-10.5-20.5-16.7-5.9-8.4-8.8-18.1-8.8-29 0-18 8.5-32.7 25.4-44.1 13.2-8.8 30.6-13.2 52.3-13.2 28.7 0 49.9 5.5 63.7 16.4 13.7 10.9 20.6 24.7 20.6 41.3 0 9.7-2.7 18.7-8.2 27.1-4.1 6.2-10.6 12.3-19.3 18.2 11.6 5.6 20.3 12.9 26 22.1s8.6 19.3 8.6 30.5c0 10.7-2.5 20.8-7.4 30.1s-11 16.5-18.2 21.6-16.1 8.8-26.8 11.2-22.1 3.6-34.2 3.6c-22.8 0-40.1-2.7-52.1-8.1s-21.1-13.3-27.4-23.7c-6.2-10.5-9.4-22.1-9.4-35 0-12.6 2.9-23.3 8.8-32 5.6-8.7 14.7-15.5 26.9-20.3zm-80.7-102.9v218.4h-60.4v-143.1c-9.8 7.4-19.2 13.4-28.4 18-9.1 4.6-20.6 9-34.4 13.2v-48.9c20.3-6.5 36.1-14.4 47.3-23.6s20-20.5 26.4-34z" fill="#e62f32"/></svg>