<svg enable-background="new 0 0 443.2 443.2" viewBox="0 0 443.2 443.2" xmlns="http://www.w3.org/2000/svg"><path d="m221.6 9.2c-119.6 0-216.6 97-216.6 216.6s97 216.6 216.6 216.6 216.6-97 216.6-216.6c.1-119.6-96.9-216.6-216.6-216.6" fill="#3e3a38"/><path d="m221.6 5c-119.6 0-216.6 97-216.6 216.6s97 216.6 216.6 216.6 216.6-97 216.6-216.6-96.9-216.6-216.6-216.6" style="fill:none;stroke:#1d1d1b;stroke-width:9.9923;stroke-linecap:round;stroke-linejoin:round;stroke-miterlimit:10"/><path d="m276.8 258.2c0 11.6 2.9 20.7 8.8 27.3s13 9.9 21.5 9.9c7.8 0 14.4-3 19.6-8.9 5.3-6 7.9-14.8 7.9-26.7 0-12.1-2.7-21.3-8.2-27.7s-12.2-9.5-20.4-9.5c-8.3 0-15.3 3.1-20.9 9.2-5.5 6.2-8.3 15-8.3 26.4zm109.8-95.6-59.3 7.3c-1.6-8.3-4.2-14.2-7.8-17.6-3.7-3.4-8.2-5.1-13.5-5.1-9.7 0-17.2 4.9-22.5 14.6-3.9 7-6.8 22.1-8.7 45.1 7.1-7.2 14.5-12.6 22-16 7.5-3.5 16.2-5.2 26.1-5.2 19.1 0 35.3 6.8 48.6 20.5 13.2 13.7 19.8 31 19.8 52 0 14.2-3.3 27.1-10 38.8s-16 20.6-27.8 26.6c-11.9 6-26.7 9-44.6 9-21.5 0-38.7-3.7-51.7-11s-23.4-19-31.1-35.1c-7.8-16.1-11.6-37.3-11.6-63.8 0-38.8 8.2-67.2 24.5-85.2s38.9-27 67.8-27c17.1 0 30.6 2 40.5 5.9s18.1 9.7 24.7 17.4c6.2 7.7 11.2 17.2 14.6 28.8zm-217.5-52v218.4h-60.4v-143.1c-9.8 7.4-19.2 13.4-28.4 18-9.1 4.6-20.6 9-34.4 13.2v-48.9c20.3-6.5 36.1-14.4 47.3-23.6s20-20.5 26.4-34z" fill="#fbbb00"/></svg>