<svg enable-background="new 0 0 443.2 443.2" viewBox="0 0 443.2 443.2" xmlns="http://www.w3.org/2000/svg"><path d="m223.5 9.2c-119.6 0-216.6 97-216.6 216.6s97 216.6 216.6 216.6 216.6-97 216.6-216.6-96.9-216.6-216.6-216.6" fill="#3e3a38"/><path d="m221.6 5c-119.6 0-216.6 97-216.6 216.6s97 216.6 216.6 216.6 216.6-97 216.6-216.6-96.9-216.6-216.6-216.6" style="fill:none;stroke:#1d1d1b;stroke-width:9.9923;stroke-linecap:round;stroke-linejoin:round;stroke-miterlimit:10"/><path d="m107.9 264 73.7-4.6c1.6 12 4.8 21.1 9.7 27.4 8 10.1 19.4 15.2 34.2 15.2 11.1 0 19.6-2.6 25.6-7.8s9-11.2 9-18c0-6.5-2.9-12.3-8.5-17.4-5.7-5.1-18.9-10-39.7-14.5-34-7.6-58.2-17.8-72.7-30.4-14.6-12.7-21.9-28.8-21.9-48.4 0-12.9 3.7-25 11.2-36.5s18.7-20.5 33.7-27c15-6.6 35.5-9.8 61.6-9.8 32 0 56.4 6 73.3 17.9 16.8 11.9 26.8 30.9 30 56.8l-73 4.3c-1.9-11.3-6-19.5-12.2-24.6s-14.8-7.7-25.7-7.7c-9 0-15.8 1.9-20.3 5.7-4.6 3.8-6.8 8.5-6.8 13.9 0 4 1.9 7.6 5.6 10.8 3.6 3.3 12.3 6.4 26 9.2 33.8 7.3 58.1 14.7 72.7 22.1 14.6 7.5 25.3 16.7 32 27.8s10 23.4 10 37.1c0 16.1-4.4 30.9-13.3 44.4-8.9 13.6-21.3 23.8-37.3 30.9-16 7-36.1 10.5-60.3 10.5-42.6 0-72.1-8.2-88.6-24.6s-25.8-37.4-28-62.7z" fill="#79b946"/></svg>