<svg enable-background="new 0 0 443.2 443.2" viewBox="0 0 443.2 443.2" xmlns="http://www.w3.org/2000/svg"><path d="m219.5 8.3c-119.7 0-216.6 97-216.6 216.6s97 216.6 216.6 216.6 216.6-97 216.6-216.6-97-216.6-216.6-216.6" fill="#3e3a38"/><path d="m221.6 5c-119.6 0-216.6 97-216.6 216.6s97 216.6 216.6 216.6 216.6-97 216.6-216.6-96.9-216.6-216.6-216.6" style="fill:none;stroke:#1d1d1b;stroke-width:9.9923;stroke-linecap:round;stroke-linejoin:round;stroke-miterlimit:10"/><path d="m120 96.3h203.2v47c-17.7 16-32.4 33.2-44.3 51.8-14.4 22.6-25.7 47.7-34 75.4-6.6 21.5-11 47-13.3 76.4h-69.4c5.5-40.9 14.1-75.2 25.8-102.9s30.3-57.3 55.7-88.9h-123.7z" fill="#f1e400"/></svg>