<svg enable-background="new 0 0 443.2 443.2" viewBox="0 0 443.2 443.2" xmlns="http://www.w3.org/2000/svg"><path d="m223.1 7.8c-119.6 0-216.6 97-216.6 216.6s97 216.6 216.6 216.6 216.6-97 216.6-216.6-97-216.6-216.6-216.6" fill="#3e3a38"/><g clip-rule="evenodd" fill-rule="evenodd"><path d="m87.7 52.3 9.1 15.4-59.7 35.2-6.4 12.7-1 6.4 67.8 49.2-44 69.2 63.6 21.7 7.7-25.2c-40.8-8.4-27.1-5.9-40.5-9.1l39.1-72-68.5-37.1 81.1-46.8-26.1-37.1" fill="#fff"/><path d="m218.4 334.7 33.6 42 20.9 24.4 20.3.7 35-50.3 39.8 25.2 17.5-20.3-58-30.7-43.4 61.5-37.7-64.3z" fill="#fff"/><path d="m29 310.3c7.8-5.9 30.2-20.3 44-29.4 13.9-9.1 31.7-15.3 39.1-25.2 7.5-9.9 1.4-16.5 5.6-34.3 4.2-17.7 13.7-54.8 19.6-72 5.8-17.2 6.1-22.9 15.4-31.4s26.8-13.5 40.5-19.6c13.8-6.1 32.7-14.2 42-16.8 9.2-2.6 8.2-.1 13.3 1.4s13.6 5.2 17.5 7.7c3.9 2.4 2.5 5.6 5.6 7s6.9-1.4 13.3 1.4 19.6 10.5 25.2 15.4 5.6 11.1 8.4 14 3.8-.7 8.4 3.5c4.5 4.2 15.5 15.8 18.9 21.7 3.4 5.8 1.8 9 1.4 13.3-.3 4.3-4.4 9-3.5 12.6s5.4 6.1 9.1 9.1 10.9 3.8 13.3 9.1c2.3 5.2 5.4 11.6.7 22.4-4.7 10.7-18.8 28-28.7 41.9-9.9 14-20.6 32.1-30.8 41.9-10.1 9.8-16.8 11-30.1 16.8s-36.4 12.6-49.6 18.2c-13.3 5.6-20.2 7.5-30.1 15.4s-21.3 23.1-29.4 32.2c-8 9.1-14 16.9-18.9 22.4s-7.7 9.3-10.5 10.5-2.2-1.4-6.3-3.5-9.4-4.2-18.2-9.1c-8.7-4.9-23.4-12-34.2-20.3s-23.5-20.6-30.8-29.3c-7.2-8.7-8.7-16.3-12.6-23.1-3.8-6.8-9.1-13.6-10.5-17.5-1.3-4-4.9-.5 2.9-6.4z"/><path d="m48.6 348c24-15.5 48-31.1 62.9-41.9s22.8-18.6 26.6-23.1c3.7-4.4-2 .2-4.2-3.5s-8-14.1-9.1-18.9c-1-4.8 1.9-8 2.8-9.8.9-1.7 2.3 5.2 2.8-.7s-2-22 0-34.9 6.8-28.5 11.9-42.6 9.2-31.9 18.9-41.9 28.3-14.9 39.1-18.2 15.8-4.3 25.9-1.4c10 2.9 23.2 11.2 34.2 18.9 11.1 7.7 26.6 21.2 32.2 27.3s1 6.5 1.4 9.1 2.1 4 .7 6.3-4.1 8.9-9.1 7.7-14-9-21-14.7-17.4-15.5-21-19.6 2.1-4.8-.7-4.9-11.7 3.3-16.1 4.2-6.2 2.3-10.5 1.4-12.1-6.6-15.4-7-2.1 3.8-4.2 4.9c-2.1 1-5.7 1.5-8.4 1.4s-6.5-4.3-7.7-2.1 1.9 11.4.7 15.4-8.3 3.6-7.7 8.4 9.7 12.4 11.2 20.3-3.9 22.1-2.1 27.3c1.8 5.1 9.7 2 12.6 3.5s4 .5 4.9 5.6 2.1 17.1.7 25.2c-1.4 8-9.2 19.9-9.1 23.1s7.1-.1 9.8-4.2 5.4-12.1 6.3-20.3-.8-22.8-.7-28.7c.1-5.8-.7-4.2 1.4-6.3s5.2-6.9 11.2-6.3c5.9.6 17.4 5.6 24.5 9.8s12.5 10.1 18.2 15.4c5.7 5.2 14.1 11.9 16.1 16.1s-1.2 7.1-4.2 9.1-10.7-.5-14 2.8-6.2 11.8-5.6 16.8 8.4 8 9.1 13.3c.7 5.2-.9 13.8-4.9 18.2s-10.9 6-18.9 8.4c-7.9 2.5-20.3 5.2-28.7 6.3-8.4 1-15.6.2-21.7 0s-13.9-5.2-14.7-1.4 10.1 17 9.8 24.5c-.4 7.5-3.9 11.8-11.9 20.3s-28.4 23.1-36.3 30.8-6.9 10-11.2 15.4 21.2 10.4 11.7 9.1c-9.6-1.3-47.6-24.7-60.2-34.2-8.4-6.4-14.9-12.3-24.9-26.5-6.1-8.6-16.6-16.6-13.7-20.9s5.4 7.4 14.4 6.1" fill="#fff"/><path d="m235.2 162.8c1.6-.1 1.9 3.1 3.5 5.6 1.6 2.4 3.5 6.3 6.3 9.1s9.3 4.7 10.5 7.7-1.2 8.3-3.5 10.5-6.6 3.7-10.5 2.8c-3.8-.9-9.4-6.1-12.6-8.4-3.1-2.3-6.3-2.1-6.3-5.6s4.1-12.2 6.3-15.4 4.7-6.2 6.3-6.3z" fill="#fff"/><path d="m227.5 104.8c-1.6-2.1-1.5-5.6 0-8.4s4.9-7.6 9.1-8.4 11.3 1.2 16.1 3.5 10.5 7 12.6 10.5 1.5 7.9 0 10.5-6.2 4.2-9.1 4.9-5.2.7-8.4-.7c-3.1-1.4-7.2-5.8-10.5-7.7s-8.2-2.1-9.8-4.2z" fill="#fff"/><path d="m268.8 124.3c1.4-4.5 9.9-14.8 14.7-16.1s10.1 4.8 14 8.4c3.8 3.6 8.9 8.2 9.1 13.3s-4.9 14.7-7.7 17.5-5.1 1.3-9.1-.7-11.1-7.7-14.7-11.2c-3.7-3.5-7.7-6.6-6.3-11.2z" fill="#fff"/><path d="m272.9 192.1c-3.1 2.6-8.6 9.1-10.5 14s-2.4 11.3-.7 15.4c1.8 4.1 6.9 8.5 11.2 9.1s6.8 1 14.7-5.6 24.5-24.7 32.9-34.3 16.9-16.2 17.5-23.1-9.8-14.5-14-18.2-7-5.7-11.2-4.2-11.6 9.9-14 13.3c-2.3 3.4-.1 3.8 0 7 .1 3.1 1.5 8.4.7 11.9s-2.6 6.9-5.6 9.1-9.1 3.5-12.6 4.2-5.2-1.1-8.4 1.4z" fill="#fff"/><path d="m291.1 264.1c-1.2-3.6-3.3-11.3-.7-18.2s9-15 16.1-23.1c7.1-8 19.9-20.8 26.6-25.2 6.6-4.3 8.5-2.6 13.3-.7s14 6.8 15.4 11.9-.4 10.7-7 18.9c-6.6 8.1-25.3 22.8-32.8 30-7.6 7.2-8.5 11.7-12.6 13.3s-8.6-2.2-11.9-3.5c-3.3-1.1-5.2.3-6.4-3.4z" fill="#fff"/></g><path d="m221.6 5c-119.6 0-216.6 97-216.6 216.6s97 216.6 216.6 216.6 216.6-97 216.6-216.6-96.9-216.6-216.6-216.6" style="fill:none;stroke:#1d1d1b;stroke-width:9.9923;stroke-linecap:round;stroke-linejoin:round;stroke-miterlimit:10"/></svg>