<svg enable-background="new 0 0 443.2 443.2" viewBox="0 0 443.2 443.2" xmlns="http://www.w3.org/2000/svg"><path d="m220.6 7.5c-119.6 0-216.6 97-216.6 216.6s97 216.6 216.6 216.6 216.6-97 216.6-216.6c.1-119.6-96.9-216.6-216.6-216.6" fill="#3e3a38"/><path d="m221.6 5c-119.6 0-216.6 97-216.6 216.6s97 216.6 216.6 216.6 216.6-97 216.6-216.6-96.9-216.6-216.6-216.6" style="fill:none;stroke:#1d1d1b;stroke-width:9.9923;stroke-linecap:round;stroke-linejoin:round;stroke-miterlimit:10"/><path clip-rule="evenodd" d="m99.2 375.1c1.8-6.2-3-32.5-2.2-45.1.9-12.6 4.5-24.5 7.3-30.5 2.8-6.1 5.9-1.7 9.5-5.8 3.5-4.1 6.5-11.3 11.6-18.9s15-22.6 18.9-26.9c3.9-4.4 2.4 1.7 4.4.7 1.9-1 3.8-3.8 7.3-6.5 3.5-2.8 10.7-8.6 13.8-10.2 3.2-1.6 4.1-3.6 5.1.7 1 4.4-.1 17 .7 25.5.9 8.5 0 18.3 4.4 25.5s15.1 13.9 21.8 17.5c6.7 3.5 13.8 2.3 18.2 3.6s5.7 5.1 8 4.4 2.2-7.2 5.8-8.7c3.6-1.6 12.8 1 16-.7s-.1-6.3 2.9-9.5 11.9-3.4 15.3-9.5 4.4-18.8 5.1-26.9-2.1-17.9-.7-21.8c1.3-3.9 3.9-4.2 8.7-1.4s16 13.3 20.4 18.2 1.6 5.1 5.8 10.9 13.5 16.7 19.6 24c6.2 7.3 14.2 11.8 17.5 19.6 3.3 7.9 1.5 18.7 2.2 27.6.7 9 1.2 19.1 2.2 26.2 1 7 1.8 15.5 3.6 16s5.9-3.4 7.3-13.1c1.3-9.7 1.3-34.1.7-45.1s.9-11.6-4.4-21.1c-5.2-9.5-18.1-25.8-26.9-35.6-8.9-9.8-20.9-17.3-26.2-23.3-5.3-5.9-2.4-8.5-5.8-12.4s-9.3-8.5-14.6-10.9c-5.2-2.4-12.7-1.6-16.7-3.6-4-2.1-5.6-6.7-7.3-8.7-1.7-2.1-4.5-2.7-2.9-3.6 1.6-1 3-1.6 12.4-2.2 9.3-.6 31.5-1.8 43.6-1.5 12.1.4 23.2 4.7 29.1 3.6s9.7-8.2 6.5-10.2c-3.2-1.9-25.5-1.5-25.5-1.5-9.9-.6-24.4-1.8-34.2-2.2s-19.2.1-24.7 0c-5.6-.1-6.8 1-8.7-.7s-7-6.7-2.9-9.5 19.3-5 27.6-7.3c8.4-2.3 16.8-5.5 22.5-6.5 5.7-1.1 8.9-.1 11.6 0 2.8.1 2.5 2.5 5.1.7 2.5-1.8 5.2-7.5 10.2-11.6s12.7-5.3 19.6-13.1 18.4-25.2 21.8-33.5c3.4-8.2.5-15.4-1.5-16-1.9-.6-4.2 5.3-10.2 12.4-5.9 7-19.6 22.5-25.5 29.8-5.8 7.3-6.1 11.3-9.5 13.8s-8.2 2.2-10.9 1.5-3.1-6.6-5.1-5.8c-1.9.7-.6 7-6.5 10.2-5.9 3.1-29.1 8.7-29.1 8.7-8.2 2.4-20.1 8-20.4 5.8-.2-2.2 12.4-10.9 18.9-18.9s17-20.9 20.4-29.1 2.1-13.7 0-20.4-8.7-15.1-12.4-19.6c-3.6-4.5-8.6-8.1-9.5-7.3-.8.8 2.7 7.3 4.4 12.4s6.4 12.5 5.8 18.2-4.6 10.1-9.5 16c-4.8 5.9-14.4 13.7-19.6 19.6s-9.2 13.7-11.6 16-3.3-.6-2.9-2.2 4.7-3.6 5.1-7.3c.4-3.6-1.5-12.2-2.9-14.5s-5-.5-5.8.7.6 3.5.7 6.5 1.1 9.1 0 11.6-4.2 3.3-6.5 3.6c-2.3.4-5.2.6-7.3-1.5s-4-7.1-5.1-10.9 0-10.2-1.4-11.6c-1.5-1.5-6.8.5-7.3 2.9s3.6 8.1 4.4 11.6c.7 3.5 1.8 9.3 0 9.5-1.8.1-6.4-4.1-10.9-8.7s-11.4-13.6-16-18.9-9.5-7.6-11.6-13.1c-2.2-5.5-2.4-13.7-1.4-19.6s8.1-13.9 7.3-16-9 0-12.4 3.6-7.2 13-8 18.2c-.9 5.2.4 7.8 2.9 13.1s7.1 12 12.4 18.9c5.2 6.9 14.9 17.9 18.9 22.5s4.6 4.1 5.1 5.1-2.5-.7-2.2.7c.4 1.5 3.8 6.2 4.4 8s4.1 3.9-.7 2.9-18.7-5.4-28.4-8.7-22.7-9-29.8-10.9-9.7.6-13.1-.7-5.8-5.3-7.3-7.3c-1.5-1.9 3.6 2.2-1.5-4.4-5.1-6.5-22.8-26.8-29.1-34.9s-6.4-13.4-8.7-13.8-4.5 8.1-5.1 11.6.1 7.8 1.5 9.4c1.3 1.7 3.3-2.8 6.5.7 3.3 3.5 8.5 13.6 13.1 20.4s10.7 15.2 14.5 20.4c3.9 5.2 3.8 9 8.7 10.9 5 1.9 12-.8 21.1.7 9.1 1.6 24.6 5.6 33.5 8.7 8.8 3.1 18.9 8.1 19.6 10.2s-4.6 1.6-15.3 2.2-36.7.5-48.7 1.4c-12 1-18.3 3.4-23.3 4.4s-7.6-.5-6.5 1.5c1.1 1.9 5.6 8.6 13.1 10.2s32-.7 32-.7c10.6-.2 23.4-1.2 31.3-.7s15.4 1.7 16 3.6-8.1 6.2-12.4 8c-4.2 1.8-8.6 1.3-13.1 2.9s-8.6.6-13.8 6.6c-5.2 5.9-12.4 22.5-17.4 29.1-5.1 6.5-7.8 4.2-13.1 10.2-5.3 5.9-13.6 19.2-18.9 25.5s-10.7 6.2-13.1 12.4-1.2 14.7-1.5 24.7c-.2 10.1.2 27.2 0 35.6-.2 8.5-3 11-1.4 15.3 1.6 4.3 11.3 14.2 13.2 8z" fill="#fff" fill-rule="evenodd"/></svg>