<svg enable-background="new 0 0 443.2 443.2" viewBox="0 0 443.2 443.2" xmlns="http://www.w3.org/2000/svg"><path d="m220.6 7.5c-119.6 0-216.6 97-216.6 216.6s97 216.6 216.6 216.6 216.6-97 216.6-216.6c.1-119.6-96.9-216.6-216.6-216.6" fill="#3e3a38"/><path d="m221.6 5c-119.6 0-216.6 97-216.6 216.6s97 216.6 216.6 216.6 216.6-97 216.6-216.6-96.9-216.6-216.6-216.6" style="fill:none;stroke:#1d1d1b;stroke-width:9.9923;stroke-linecap:round;stroke-linejoin:round;stroke-miterlimit:10"/><g clip-rule="evenodd" fill="#fff" fill-rule="evenodd"><path d="m141 240.5c0 23.8 19.3 43.1 43.1 43.1 23.8 0 43.1-19.3 43.1-43.1s-19.3-43.1-43.1-43.1c-23.8 0-43.1 19.3-43.1 43.1zm-30 0c0-40.4 32.7-73.1 73.1-73.1 40.4 0 73.1 32.7 73.1 73.1 0 40.4-32.7 73.1-73.1 73.1-40.4.1-73.1-32.7-73.1-73.1z"/><path d="m188 192.1c0 23.8 19.3 43.1 43.1 43.1 23.8 0 43.1-19.3 43.1-43.1s-19.3-43.1-43.1-43.1c-23.8 0-43.1 19.3-43.1 43.1zm-30 0c0-40.4 32.7-73.1 73.1-73.1 40.4 0 73.1 32.7 73.1 73.1 0 40.4-32.7 73.1-73.1 73.1-40.4 0-73.1-32.7-73.1-73.1z"/><path d="m168.5 295.5h31.8v101.2h-31.8z"/><path d="m146.5 336.2h76v31.8h-76z"/><path d="m249.7 114.6h87.5v31.8h-87.5z" transform="matrix(.7081 -.7062 .7062 .7081 -6.4919 245.3371)"/><path d="m319.1 78.8h26.1v73.1h-26.1z"/><path d="m272.1 78.8h73.1v26.1h-73.1z"/></g></svg>