<svg enable-background="new 0 0 443.2 443.2" viewBox="0 0 443.2 443.2" xmlns="http://www.w3.org/2000/svg"><path d="m220.6 7.5c-119.6 0-216.6 97-216.6 216.6s97 216.6 216.6 216.6 216.6-97 216.6-216.6c.1-119.6-96.9-216.6-216.6-216.6" fill="#3e3a38"/><path d="m221.6 5c-119.6 0-216.6 97-216.6 216.6s97 216.6 216.6 216.6 216.6-97 216.6-216.6-96.9-216.6-216.6-216.6" style="fill:none;stroke:#1d1d1b;stroke-width:9.9923;stroke-linecap:round;stroke-linejoin:round;stroke-miterlimit:10"/><g clip-rule="evenodd" fill-rule="evenodd"><path d="m92.3 380 55.3-69.8.7-65.4 118.6-138.9-5.1-5.1.7-17.5 40.8 33.5 13.8-18.2-15.3-13.1 1.5-18.9 67.6 57.4-21.8 3-18.2-15.3-13.8 17.4 42.9 34.9-19.7 2.2-4.3-4.3-119.3 142.5-60.4 10.9z" fill="#fff"/><path d="m156.3 247.7c4-1.8 15.8 8.6 21.8 10.9 6.1 2.3 8.8 3 14.5 2.9s12.8-2.5 19.6-3.6 15.6-2.9 21.1-2.9 10.3 1.7 11.6 2.9.1-.5-3.6 4.4c-3.8 4.9-14.5 19.2-18.9 24.7-4.4 5.6-4.4 7-7.3 8.7s-10.2 1.5-10.2 1.5l-21.8 3.6c-7.2 1.1-16.4 1.9-21.1 2.9s-6.1 3.9-7.3 2.9.1-2.5 0-8.7-.9-19.9-.7-28.4c.3-8.5-1.7-20 2.3-21.8z"/><path d="m258.9 250.5c-.4.2-21.6-18.5-25.5-22.5s-3-4.7 2.2-1.5 26.4 20.3 29.2 20.9c-4.2-.3-2.3 6.2-5.9 3.1z"/><path d="m273.3 235c-.4.2-21.6-18.6-25.4-22.6-3.9-4-3.1-4.7 2.2-1.4 5.2 3.2 26.4 20.3 29.2 20.9-4.3-.3-2.3 6.2-6 3.1z"/><path d="m285.9 219.8c-.4.2-21.6-18.5-25.5-22.5s-3-4.7 2.2-1.5 26.4 20.3 29.2 20.9c-4.2-.3-2.3 6.2-5.9 3.1z"/><path d="m299 204.1c-.4.2-21.6-18.6-25.5-22.6s-3-4.7 2.2-1.4c5.2 3.2 26.4 20.3 29.2 20.9-4.2-.3-2.2 6.1-5.9 3.1z"/><path d="m311.7 188.3c-.4.2-21.6-18.5-25.5-22.5s-3-4.7 2.2-1.5 26.4 20.3 29.2 20.9c-4.1-.3-2.2 6.2-5.9 3.1z"/></g></svg>